<?xml version="1.0" encoding="UTF-8" standalone="no"?>
<!-- Created with Inkscape (http://www.inkscape.org/) -->

<svg
   width="148.16545mm"
   height="159.61929mm"
   viewBox="0 0 148.16545 159.61929"
   version="1.1"
   id="svg1"
   xml:space="preserve"
   xmlns="http://www.w3.org/2000/svg"
   xmlns:svg="http://www.w3.org/2000/svg"><defs
     id="defs1"><rect
       x="-108.84421"
       y="2.0536644"
       width="88.307571"
       height="605.83099"
       id="rect8" /></defs><path
     d="m 87.103727,88.238542 c -0.465411,-0.004 -1.243811,0.310636 -1.519287,0.644405 -0.50444,0.61056 -0.606704,1.181447 -0.428914,2.384867 0.13813,0.93627 1.36139,4.465151 2.01383,5.809981 0.52625,1.08482 0.743616,1.759414 1.616956,5.015195 0.12661,0.4718 0.464685,1.65686 0.751375,2.63343 0.34531,1.17675 0.577504,2.1279 0.689364,2.81947 0.0929,0.57384 0.316851,1.56003 0.498161,2.19211 0.18132,0.63208 0.447111,1.58609 0.590661,2.11926 0.83072,3.08921 1.012372,3.75784 1.296562,4.76818 0.17217,0.61288 0.506187,1.82861 0.741557,2.70216 0.3407,1.26414 0.451856,1.59722 0.545186,1.63091 0.19242,0.0701 0.851399,0.0105 1.175639,-0.10594 0.16661,-0.0598 0.480115,-0.11718 0.697115,-0.12816 0.61542,-0.0311 1.291781,-0.21723 1.344621,-0.37 0.0259,-0.0775 -0.204615,-0.92414 -0.587045,-2.15026 -0.34669,-1.11244 -0.81668,-2.63651 -1.04438,-3.38687 -0.22771,-0.75035 -0.621185,-1.95191 -0.874365,-2.67064 -0.25317,-0.71873 -0.536046,-1.61065 -0.628386,-1.9823 -0.0926,-0.37157 -0.336979,-1.24928 -0.543119,-1.94976 -0.20614,-0.70046 -0.39534,-1.44231 -0.42013,-1.64847 -0.0251,-0.20606 -0.21604,-0.93863 -0.42478,-1.62833 -0.20874,-0.68969 -0.388525,-1.37941 -0.399975,-1.53272 -0.0113,-0.15341 -0.164488,-0.74248 -0.340548,-1.30897 -0.17605,-0.56651 -0.378672,-1.34011 -0.450102,-1.71927 -0.12275,-0.651415 -0.244808,-1.178661 -0.680578,-2.945041 -0.10192,-0.4132 -0.226523,-1.012672 -0.277503,-1.331702 -0.051,-0.31903 -0.17044,-0.865032 -0.2651,-1.213362 -0.0944,-0.34842 -0.210445,-1.042322 -0.257865,-1.542542 -0.13963,-1.47462 -0.174387,-1.630631 -0.600997,-2.687691 -0.63465,-1.57327 -1.113576,-2.135439 -2.040186,-2.395719 -0.05135,-0.01444 -0.111279,-0.02165 -0.177767,-0.02222 z m 3.781682,7.729244 c -0.01996,-0.0014 -0.02918,0.03209 -0.03049,0.09198 -0.002,0.0783 0.05729,0.368242 0.130742,0.644922 0.0737,0.27659 0.248543,1.068946 0.389123,1.760616 0.29072,1.43192 0.504887,2.328612 0.899687,3.766182 0.15173,0.55274 0.347489,1.31007 0.434599,1.68361 0.0869,0.3736 0.311798,1.20291 0.500228,1.84227 0.18809,0.6392 0.359902,1.31348 0.381372,1.49862 0.0216,0.18479 0.2681,1.08154 0.54777,1.99316 0.27968,0.91161 0.570792,1.92879 0.646472,2.26032 0.0757,0.33152 0.363258,1.23986 0.639238,2.019 0.27597,0.77914 0.691527,2.0293 0.923457,2.77813 0.23194,0.74884 0.695522,2.23902 1.029912,3.3109 0.33438,1.07189 0.77111,2.5524 0.971,3.29024 0.19962,0.73795 0.542494,1.90339 0.761194,2.58951 0.2187,0.68612 0.494392,1.67243 0.612882,2.19211 0.24524,1.07493 0.874755,2.72731 1.657785,4.35219 0.44761,0.92836 0.84018,1.83628 2.15904,4.99091 0.3187,0.76267 0.89674,2.11887 1.28416,3.01429 0.38744,0.89544 0.92805,2.19181 1.20096,2.88096 0.27317,0.68906 0.63426,1.53474 0.80305,1.87896 0.16855,0.34431 0.73113,1.70651 1.24953,3.0272 2.65955,6.77341 2.81718,7.10982 3.14503,6.69417 0.18545,-0.23522 0.0185,-0.81808 -2.38745,-8.31526 -2.04449,-6.37011 -3.15637,-9.97861 -3.3352,-10.82466 -0.18284,-0.86344 -7.795005,-22.24499 -8.686805,-24.40006 -0.36485,-0.88105 -1.617232,-4.11165 -2.783292,-7.17889 -2.328183,-6.125111 -3.004253,-7.8315 -3.143994,-7.841384 z m 6.083349,24.961784 c -0.08424,0.004 -0.179307,0.0165 -0.284737,0.0393 -0.21577,0.0464 -0.674549,0.11958 -1.019059,0.16227 -0.86599,0.10757 -1.523588,0.28369 -1.591118,0.42684 -0.0711,0.15058 0.0029,0.34786 0.149345,0.3974 0.1713,0.0583 2.134279,-0.25564 2.676839,-0.42788 0.712338,-0.22615 0.65842,-0.62403 0.06873,-0.5979 z m 0.01447,0.99167 c -0.224686,0.01 -0.484113,0.0555 -0.748275,0.14935 -0.15333,0.0545 -0.562485,0.1281 -0.909505,0.16381 -0.7496,0.077 -0.827844,0.10047 -0.954464,0.28732 v 5.2e-4 c -0.27914,0.41276 0.3074,0.54721 1.26814,0.29042 0.34098,-0.0909 0.752169,-0.15849 0.913639,-0.15038 0.1813,0.009 0.461332,-0.0546 0.732772,-0.16691 0.7359,-0.3046 0.371748,-0.60262 -0.302307,-0.57413 z m 0.732771,0.96687 c -0.165991,-0.0299 -0.43852,0.005 -0.840775,0.0997 -0.38791,0.0917 -0.769157,0.15761 -0.846977,0.14676 -0.30132,-0.0423 -1.373003,0.29429 -1.376143,0.43202 -0.007,0.32239 0.123918,0.36944 0.712618,0.25683 1.1829,-0.22636 1.656097,-0.3101 1.980757,-0.34933 0.47364,-0.0573 0.541112,-0.0921 0.571542,-0.29869 0.0241,-0.16312 -0.03503,-0.25747 -0.201022,-0.28732 z m -0.06666,0.95291 c -0.144789,0.01 -0.315709,0.0339 -0.512114,0.0729 -0.37332,0.0744 -0.946911,0.17324 -1.274341,0.21963 -0.7693,0.10913 -0.881042,0.15335 -0.911572,0.35967 -0.0437,0.29544 0.243057,0.34949 1.096057,0.20722 0.42411,-0.0707 0.962913,-0.15823 1.197343,-0.1943 0.83406,-0.12843 0.953214,-0.17144 0.991154,-0.35709 0.04777,-0.2329 -0.152161,-0.33664 -0.586527,-0.30799 z m 0.577225,0.90124 c -0.09384,0.003 -0.209993,0.018 -0.350366,0.045 -0.29406,0.0563 -0.678898,0.11162 -0.854728,0.12299 -0.17591,0.0111 -0.453013,0.0679 -0.615983,0.12609 -0.16321,0.0583 -0.474144,0.1152 -0.690914,0.12609 -0.21711,0.0108 -0.396255,0.0199 -0.398425,0.0202 -0.003,2.9e-4 -0.02883,0.0539 -0.05943,0.11886 -0.19297,0.40915 0.223641,0.5204 1.132231,0.30282 0.38155,-0.0914 0.762516,-0.15651 0.846976,-0.14521 0.30776,0.0413 1.211446,-0.23768 1.267106,-0.39119 0.08404,-0.23171 0.0051,-0.33427 -0.276469,-0.32556 z m 0.315227,0.93276 c -0.0708,-0.0254 -0.482657,0.0238 -0.915707,0.10955 -0.43282,0.0856 -0.821916,0.14816 -0.864546,0.13901 -0.20023,-0.0426 -1.142136,0.24636 -1.228866,0.37672 -0.17242,0.25978 0.108182,0.34995 0.731222,0.23513 0.3121,-0.0577 0.759544,-0.13366 0.994254,-0.16898 0.66063,-0.0994 1.265306,-0.19885 1.390096,-0.2279 0.14884,-0.0349 0.06465,-0.40123 -0.106453,-0.46353 z m -0.03927,0.91777 c -0.122935,0.006 -0.266219,0.0241 -0.427881,0.0548 -0.30532,0.0579 -0.900213,0.1575 -1.321883,0.22169 -0.92109,0.13971 -0.864324,0.12151 -0.954464,0.31212 -0.0926,0.19628 0.0987,0.39021 0.348299,0.35347 0.095,-0.0141 0.435363,-0.062 0.756543,-0.10697 0.59215,-0.0827 1.58222,-0.27151 1.90376,-0.36328 0.0996,-0.0285 0.190883,-0.12009 0.210323,-0.21084 0.04087,-0.18913 -0.145894,-0.27943 -0.514697,-0.26097 z m 0.706416,0.86971 c -0.0363,-0.004 -0.08356,-4.7e-4 -0.144177,0.007 -0.11824,0.0152 -0.421134,0.0497 -0.673344,0.077 -0.25204,0.0269 -0.743313,0.11631 -1.091923,0.19843 -0.34862,0.0821 -0.710091,0.13789 -0.803051,0.12403 -0.17837,-0.0263 -0.305269,0.0101 -0.433049,0.12402 -0.13115,0.11705 0.03116,0.41201 0.256315,0.46612 0.12403,0.0293 0.534887,-0.0331 1.006657,-0.15348 0.43858,-0.11188 0.892674,-0.20169 1.008724,-0.19947 0.38974,0.007 0.879963,-0.19184 0.935343,-0.37982 0.05392,-0.18276 0.0474,-0.25326 -0.06149,-0.26407 z m -0.115755,0.88574 c -0.10384,0.01 -0.230305,0.0337 -0.380855,0.0718 -0.29988,0.0761 -0.78341,0.1723 -1.07487,0.21394 -0.87882,0.12509 -1.332374,0.31845 -1.254704,0.53485 0.0831,0.2316 0.174555,0.24402 0.765845,0.1018 0.27283,-0.0653 0.75761,-0.15791 1.07797,-0.20515 1.12694,-0.16692 1.22225,-0.19655 1.25057,-0.38861 0.03742,-0.25381 -0.07243,-0.35719 -0.383956,-0.32866 z m 0.393258,0.91725 c -0.012,-0.007 -0.302469,0.0499 -0.645439,0.12661 -0.3433,0.0765 -0.824765,0.16017 -1.070735,0.18604 -0.7611,0.0795 -1.053818,0.15501 -1.116728,0.28835 -0.17262,0.3658 0.04205,0.44872 0.819588,0.31781 2.33118,-0.39251 2.63891,-0.53306 2.013314,-0.91881 z m 0.185518,0.96687 c -0.342535,0.0119 -0.953593,0.0929 -1.313098,0.185 -0.25469,0.065 -0.640285,0.13046 -0.856795,0.14521 -0.48004,0.0331 -0.540602,0.0537 -0.611332,0.20361 -0.14261,0.30218 0.09493,0.44061 0.503328,0.29404 0.11554,-0.0414 0.349248,-0.0745 0.519348,-0.0729 0.17001,0.001 0.599177,-0.0602 0.953947,-0.13694 0.35467,-0.077 0.754488,-0.15743 0.888318,-0.17932 0.247562,-0.0402 0.355622,-0.34645 0.149862,-0.42529 -0.03533,-0.0135 -0.119399,-0.0174 -0.233578,-0.0134 z m 0.202055,0.85059 c -0.224583,-0.003 -0.64327,0.0727 -1.455725,0.22531 -0.37925,0.0712 -0.810815,0.14979 -0.959115,0.17519 -0.17431,0.0297 -0.290041,0.0908 -0.327111,0.17156 -0.153513,0.33548 0.192818,0.46432 0.826306,0.30748 0.26845,-0.0666 0.714964,-0.14569 0.992704,-0.17622 0.7767,-0.0854 1.256024,-0.26434 1.214394,-0.4532 -0.0364,-0.16446 -0.0669,-0.24695 -0.291453,-0.25012 z m 0.368453,0.90538 c -0.0634,-0.0199 -0.16723,0.004 -0.375171,0.0512 -0.2287,0.052 -0.662125,0.12789 -0.962215,0.16898 -0.8853,0.12039 -1.368721,0.25227 -1.434021,0.39067 -0.13412,0.28427 0.211887,0.48289 0.600997,0.3452 0.13639,-0.0484 0.563696,-0.13202 0.949296,-0.18552 0.3856,-0.0535 0.868067,-0.1445 1.072284,-0.20205 l 0.37104,-0.10491 -0.0909,-0.25373 c -0.0454,-0.12651 -0.0679,-0.18986 -0.13126,-0.2098 z m 0.03,0.93017 c -0.19403,-0.003 -0.465279,0.0511 -0.850592,0.15245 -0.30699,0.0807 -0.623279,0.13722 -0.702799,0.12557 -0.28058,-0.0415 -0.968575,0.1594 -0.997355,0.29146 -0.0146,0.067 0.628336,1.9658 1.428336,4.21989 0.8,2.25409 1.70737,4.9092 2.0159,5.90042 0.30876,0.99113 1.19247,3.61811 1.96422,5.83737 0.77202,2.21916 1.55825,4.51299 1.74718,5.09736 1.6192,5.01122 1.69709,5.197 2.12442,5.04362 0.31129,-0.11171 0.30634,-0.29653 -0.0408,-1.55133 -0.185,-0.66899 -0.64493,-2.39369 -1.02267,-3.83232 -0.37749,-1.43873 -0.80223,-3.03458 -0.94362,-3.54604 -0.14117,-0.51156 -0.4005,-1.48564 -0.57619,-2.16472 -0.3918,-1.51538 -0.70162,-2.67046 -1.21181,-4.51807 -0.21542,-0.78036 -0.43262,-1.64118 -0.48317,-1.91203 -0.0504,-0.27118 -0.18947,-0.77062 -0.30903,-1.11001 -0.11907,-0.33959 -0.27348,-0.87294 -0.34261,-1.18546 -0.0689,-0.3126 -0.2095,-0.90602 -0.31265,-1.31878 -0.10292,-0.41284 -0.23901,-1.0448 -0.30179,-1.40457 -0.142,-0.81232 -0.25897,-1.43155 -0.45578,-2.41225 -0.084,-0.41964 -0.18649,-0.94485 -0.22738,-1.16686 -0.0691,-0.3756 -0.17839,-0.54053 -0.50178,-0.5457 z"
     style="baseline-shift:baseline;display:inline;overflow:visible;vector-effect:none;fill-rule:evenodd;enable-background:accumulate;stop-color:#000000;stop-opacity:1"
     id="path10" /><path
     d="m 64.13717,84.082723 c -0.43152,-0.03394 -0.615763,0.271644 -2.0283,2.646867 -0.891767,1.4997 -4.77778,8.08097 -8.635131,14.62546 -3.857436,6.54436 -8.219707,13.92779 -9.694499,16.4083 -1.474637,2.4804 -2.725783,4.60816 -2.780192,4.72788 -0.0544,0.11972 0.901273,0.37076 2.123901,0.55862 l 2.22312,0.34158 -1.940966,-0.20308 -1.941484,-0.20309 -0.535368,1.0759 c -0.654387,1.31521 -2.732716,4.6711 -5.200716,8.39742 -1.7316,2.61451 -4.720066,7.6698 -7.016626,11.86904 l -1.005623,1.83814 0.680578,0.0398 c 2.00265,0.11759 4.847559,-1.16322 6.327779,-2.84893 2.09681,-2.38811 5.189621,-8.07471 6.184636,-11.37243 0.882353,-2.92374 4.187036,-8.47265 5.187797,-8.71006 0.361929,-0.0859 3.473308,-5.68099 3.300057,-5.93452 -0.07221,-0.10562 -0.02419,-0.19703 0.106453,-0.20309 0.561832,-0.0256 16.905211,-29.452838 16.812411,-30.271538 -0.11793,-1.04009 -1.247794,-2.623747 -1.963705,-2.752287 -0.07605,-0.01367 -0.142476,-0.02512 -0.204122,-0.02997 z M 47.920589,111.92598 c 0.03341,-0.0228 0.569959,0.12309 1.192175,0.32453 l 1.131198,0.36587 -1.121379,-0.22066 c -1.002904,-0.19769 -1.382784,-0.34624 -1.201994,-0.46974 z m -3.197221,5.1599 c 0.05489,0.0267 0.749826,0.20524 1.544092,0.39687 l 1.444356,0.3483 -1.424719,-0.22117 c -0.783489,-0.12182 -1.478347,-0.30059 -1.544092,-0.39688 -0.06587,-0.0964 -0.07476,-0.15369 -0.01964,-0.12712 z m -5.467883,12.91962 c 0.02276,0.01 0.04218,0.0325 0.0615,0.062 h -5.17e-4 c 0.24253,0.37089 -0.03503,1.00246 -1.882572,4.27881 -1.09627,1.94408 -1.986751,3.67845 -1.978691,3.85455 0.0116,0.25233 -0.06808,0.30483 -0.375687,0.24701 -0.72801,-0.13703 -0.45083,-0.87597 1.73271,-4.61781 1.93942,-3.3236 2.283926,-3.89267 2.443262,-3.82457 z"
     style="baseline-shift:baseline;display:inline;overflow:visible;vector-effect:none;fill-rule:evenodd;enable-background:accumulate;stop-color:#000000;stop-opacity:1"
     id="path9" /><path
     d="m 71.305725,88.565653 c -0.03019,-0.0045 -0.06297,-0.0011 -0.0987,0.0093 -0.171488,0.05012 -0.412472,0.269637 -0.77618,0.631486 -1.5,1.49239 -1.494439,1.481685 -2.824117,5.755205 -0.429047,1.37908 -1.456593,4.690423 -2.195732,7.077084 -0.818561,2.64307 -1.191772,3.68557 -2.930053,8.184 -0.499184,1.292 -0.972869,2.52356 -1.052132,2.7373 -0.07935,0.21379 -0.242749,0.64252 -0.363286,0.9524 -0.120535,0.30989 -0.231426,0.59481 -0.24598,0.63355 -0.01451,0.0387 -0.262709,0.68678 -0.551904,1.43971 -0.513331,1.33661 -1.460982,3.86563 -1.711007,4.56664 -0.262423,0.7354 -1.007365,3.36376 -1.563728,5.51698 -0.134097,0.51867 -0.294595,1.13208 -0.357085,1.36322 -0.0625,0.23111 -0.165944,0.62827 -0.22996,0.88315 -0.112882,0.44924 -0.936763,3.66669 -1.023193,3.99562 -0.04961,0.18894 -0.317892,1.2318 -0.695565,2.70371 -0.917352,3.57478 -1.184549,4.49978 -1.544608,5.35213 -0.380553,0.90062 -1.291624,2.78414 -2.564702,5.302 -1.756274,3.47351 -1.924723,3.86719 -1.898592,4.43384 0.06443,1.39851 1.111383,6.11037 1.486731,6.69055 0.256229,0.39622 0.181903,-0.47661 -0.279569,-3.30006 -0.420515,-2.57269 -0.479697,-3.17949 -0.346749,-3.5512 0.143818,-0.40231 0.918613,-1.95697 1.999878,-4.01268 2.811,-5.34436 2.562802,-4.82705 3.987353,-8.30285 0.531486,-1.2968 1.235865,-3.00198 1.565279,-3.78943 0.809224,-1.93442 2.133648,-5.1635 2.723865,-6.64042 0.265699,-0.66514 0.547026,-1.3657 0.624768,-1.55701 0.640126,-1.5754 0.908551,-2.36217 8.35763,-24.46208 1.082528,-3.21137 2.155292,-6.376576 2.383833,-7.033676 0.701998,-2.01902 0.791571,-2.712769 0.552938,-4.285009 -0.1304,-0.858567 -0.218064,-1.262033 -0.429431,-1.293462 z m -5.262728,21.842077 c 0.0341,-0.18696 -0.434402,1.18053 -2.557983,7.46621 -1.063383,3.14787 -1.94594,5.75521 -1.961121,5.79396 -0.01529,0.0389 -0.148035,0.38722 -0.295072,0.77412 -0.294297,0.77424 -0.976547,2.49905 -1.42627,3.60649 -0.15899,0.39124 -0.322808,0.79478 -0.364319,0.89711 -0.451946,1.11303 -1.01696,2.4839 -1.822111,4.42247 -1.752663,4.21955 -1.808745,4.36365 -2.021582,5.14904 -0.647688,2.39063 -0.772918,2.69807 -3.177583,7.81244 -1.1696,2.4875 -1.364025,2.96522 -1.366325,3.35897 -0.0031,0.53767 0.163272,1.93971 0.349849,2.94607 0.391156,2.11016 0.758022,3.5781 0.925525,3.70365 0.159658,0.11948 0.123101,-0.60724 -0.118856,-2.36626 -0.03007,-0.21749 -0.09168,-0.6813 -0.137459,-1.03043 -0.04578,-0.34913 -0.09776,-0.72904 -0.115239,-0.84439 -0.187607,-1.24179 -0.252524,-2.31724 -0.157096,-2.60036 0.14109,-0.41811 0.63146,-1.40287 1.634009,-3.28042 2.527778,-4.73462 2.489711,-4.65739 3.004984,-6.05803 0.579869,-1.57661 1.498609,-4.05019 2.200383,-5.92419 0.07254,-0.19371 0.219329,-0.58746 0.326078,-0.87488 0.106647,-0.28736 0.334267,-0.9005 0.505913,-1.36271 2.749391,-7.4041 3.659399,-9.95067 3.911389,-10.94248 0.07713,-0.30328 0.146291,-0.56743 0.153479,-0.58653 0.01451,-0.0387 0.280531,-1.12262 0.792199,-3.22719 0.403464,-1.65981 0.346928,-1.42958 0.643889,-2.61121 0.133446,-0.53094 0.268045,-1.06931 0.299206,-1.19631 0.03108,-0.12713 0.212931,-0.8317 0.40411,-1.5658 0.191171,-0.73413 0.357551,-1.39084 0.370003,-1.45934 z m -3.768245,1.64228 c 0.08722,-0.0278 0.305454,0.0731 1.040246,0.43046 0.721833,0.35113 0.938343,0.47883 0.959115,0.56638 0.06224,0.2636 -0.0962,0.22837 -1.070219,-0.2372 -0.946011,-0.4523 -1.057288,-0.53055 -0.98702,-0.69401 0.01423,-0.0331 0.0288,-0.0564 0.05788,-0.0656 z m -0.336931,0.8909 c 0.101078,-0.0809 1.960856,0.82124 2.020032,0.97978 0.107814,0.28893 -0.06535,0.25232 -1.054199,-0.22272 -0.974316,-0.46807 -1.15247,-0.60796 -0.965833,-0.75706 z m -0.364318,0.8816 c 0.09785,-0.113 2.139108,0.87022 2.128552,1.02526 -0.01778,0.2603 -0.137785,0.21978 -1.808159,-0.60978 -0.370834,-0.18414 -0.441674,-0.27561 -0.320393,-0.41548 z m -0.313676,0.87643 c 0.116987,-0.0848 2.087511,0.84643 2.124935,1.00408 0.06727,0.28327 -0.103504,0.24455 -1.144117,-0.25787 -1.020248,-0.49265 -1.171873,-0.6079 -0.980818,-0.74621 z m -0.239779,0.89814 c 0.451845,0.098 2.032683,0.8404 2.071191,1.00355 0.06133,0.25948 -0.118428,0.21783 -1.16427,-0.26871 -1.051898,-0.48951 -1.143987,-0.55531 -1.02371,-0.73381 0.01069,-0.0159 0.05224,-0.015 0.116789,-0.001 z m -0.393774,0.82527 c 0.100251,-0.0512 2.152032,0.96282 2.17351,1.07435 0.04686,0.2423 -0.125346,0.20089 -1.190108,-0.2868 -1.079245,-0.49422 -1.127236,-0.52419 -1.07797,-0.67128 0.015,-0.045 0.05757,-0.0973 0.09457,-0.11627 z m -0.344165,0.87695 c 0.08229,-0.0101 0.295258,0.0904 1.166337,0.50023 0.925592,0.4353 1.199558,0.6181 1.067635,0.71313 -0.02241,0.0161 -0.05896,0.0413 -0.08113,0.0558 -0.02229,0.0142 -0.523551,-0.19652 -1.114661,-0.4687 -1.066547,-0.49107 -1.231034,-0.60543 -1.096057,-0.7612 0.01791,-0.0206 0.03045,-0.0359 0.05788,-0.0393 z m -0.372071,0.90951 c 0.100271,-0.0804 2.257264,0.90717 2.291333,1.04903 0.06541,0.27265 -0.119781,0.2295 -1.225765,-0.28681 -1.088053,-0.50796 -1.243873,-0.61931 -1.065568,-0.76222 z m -0.351916,0.88315 c 0.06988,-0.11511 2.294316,0.8822 2.360062,1.05833 0.02203,0.0589 0.03233,0.11055 0.02326,0.11524 -0.0094,0.005 -0.04237,0.0383 -0.07338,0.0739 -0.06672,0.0769 -2.323539,-0.96889 -2.347143,-1.08778 -0.0074,-0.0393 0.009,-0.11098 0.03721,-0.15968 z m -0.30024,0.87126 c 0.110382,-0.0378 0.386018,0.0767 1.204577,0.45269 1.107773,0.50884 1.276287,0.62334 1.142566,0.77773 -0.08549,0.0986 -0.167067,0.0697 -1.316715,-0.46716 -1.122487,-0.52417 -1.146534,-0.53911 -1.099675,-0.67903 0.01419,-0.0424 0.03245,-0.0716 0.06925,-0.0842 z m -0.241846,0.88573 c 0.515962,0.10604 2.265405,0.90835 2.30942,1.09399 0.06587,0.27807 -0.08788,0.24175 -1.267623,-0.29869 -1.144532,-0.52416 -1.313994,-0.63818 -1.17874,-0.79426 0.01481,-0.0171 0.06323,-0.0162 0.136943,-0.001 z m -0.413411,0.86765 c 0.08548,-0.0877 2.359951,0.91267 2.415873,1.06247 0.107637,0.28831 -0.105857,0.23876 -1.274858,-0.29662 -1.145385,-0.52478 -1.284932,-0.61841 -1.141015,-0.76585 z m -0.199472,0.80977 c 0.109067,-0.0557 2.252137,0.94376 2.280481,1.0635 0.06905,0.29246 -0.131747,0.24872 -1.266589,-0.27595 -1.127302,-0.52111 -1.288862,-0.64697 -1.013892,-0.78755 z m -0.264583,0.90331 c 0.06784,-0.1167 2.190949,0.83323 2.230355,0.99787 0.06104,0.25517 -0.111082,0.21468 -1.185457,-0.27699 -1.053883,-0.48229 -1.146236,-0.54628 -1.044898,-0.72088 z m -0.21239,0.82062 c 0.120641,-0.0865 2.085744,0.83379 2.123901,0.99477 0.06433,0.27068 -0.08694,0.23925 -1.121378,-0.231 -1.04724,-0.47604 -1.220422,-0.60743 -1.002523,-0.76377 z m -0.152962,0.88728 c 0.418922,0.0905 1.915315,0.77433 1.949752,0.91829 0.06017,0.25175 -0.111211,0.21488 -1.098125,-0.23668 -0.969138,-0.4433 -1.059013,-0.50693 -0.958081,-0.68058 0.0085,-0.0146 0.04661,-0.0139 0.106454,-0.001 z m -0.318327,0.82062 c 0.13426,-0.0973 1.98313,0.79296 1.972489,0.94982 -0.01506,0.21977 -0.128133,0.19549 -1.06195,-0.2279 -0.952729,-0.43196 -1.123568,-0.56747 -0.910539,-0.72192 z m -0.174666,0.82011 c 0.47094,0.18143 1.833255,0.84749 1.843298,0.90124 0.05344,0.28124 -0.06866,0.26026 -1.019059,-0.17467 -0.964992,-0.44171 -1.017274,-0.47813 -0.909506,-0.63821 0.03557,-0.0528 0.07388,-0.0928 0.08527,-0.0884 z m -0.267168,0.88573 c 0.08746,-0.0285 0.299171,0.062 0.968417,0.37156 0.833472,0.38541 0.958105,0.49067 0.749825,0.63303 -0.07856,0.0537 -0.24618,-0.004 -0.927592,-0.32091 -0.824573,-0.38298 -0.920571,-0.4529 -0.849044,-0.61908 0.01389,-0.0323 0.02924,-0.0551 0.05839,-0.0646 z m -0.269234,0.87695 c 0.06608,-0.0762 1.701448,0.65211 1.748731,0.77877 0.101704,0.2725 -0.113384,0.23795 -0.958598,-0.15348 -0.836654,-0.38748 -0.931422,-0.46229 -0.790133,-0.62529 z m -0.146761,0.84956 c 0.341109,0.0549 1.525757,0.59627 1.560112,0.74001 0.06251,0.26079 -0.128964,0.23498 -0.908472,-0.12196 -0.763239,-0.34968 -0.849693,-0.42049 -0.740523,-0.60875 0.0085,-0.0146 0.04015,-0.0171 0.08888,-0.009 z m -0.21394,0.82734 c 0.101348,0.0196 0.303671,0.11376 0.774113,0.33125 0.669075,0.30927 0.81163,0.43745 0.639754,0.57516 -0.07526,0.0604 -1.54669,-0.57557 -1.588017,-0.68627 -0.01209,-0.0321 0.0072,-0.10105 0.04237,-0.15348 0.02002,-0.0297 0.03451,-0.0521 0.05788,-0.063 0.01753,-0.008 0.04012,-0.0101 0.0739,-0.004 z"
     style="baseline-shift:baseline;display:inline;overflow:visible;vector-effect:none;fill:#1f1f1e;fill-rule:evenodd;enable-background:accumulate;stop-color:#000000;stop-opacity:1"
     id="path8" /><path
     d="m 77.482092,88.940824 c -0.243319,0.04733 -0.313838,0.379041 -0.312642,1.470712 4.14e-4,0.584994 -0.03128,2.074451 -0.0708,3.309875 -0.03952,1.235689 -0.103312,3.8569 -0.14211,5.825484 -0.0388,1.968585 -0.09096,4.558195 -0.116272,5.754175 l -0.04651,2.17454 0.166398,-5.2e-4 c 0.138113,-2.8e-4 0.165817,-0.0452 0.165365,-0.26406 -6.5e-4,-0.31459 0.300817,-0.71078 0.652673,-0.85835 0.352913,-0.14837 0.465198,-0.40946 0.352434,-0.81907 -0.05012,-0.18246 -0.125858,-1.28383 -0.167949,-2.44791 -0.04209,-1.16408 -0.113478,-2.93008 -0.15813,-3.924828 -0.04439,-0.994743 -0.108229,-3.706715 -0.141593,-6.025988 -0.05435,-3.769415 -0.07323,-4.215184 -0.180868,-4.19406 z m 2.548682,0.03152 c -0.136154,0.04003 -0.160257,0.461837 -0.205156,2.487187 -0.02202,0.994881 -0.07235,2.397889 -0.112137,3.117639 -0.03979,0.71975 -0.122359,2.676793 -0.182935,4.349088 -0.193483,5.347109 -0.239979,6.268649 -0.328662,6.501929 -0.122366,0.32225 -0.574752,0.8565 -0.846977,0.99994 -0.126333,0.0667 -0.33408,0.17568 -0.46147,0.24288 -0.284119,0.14955 -0.459652,0.47243 -0.458887,0.84284 3.16e-4,0.15319 -0.04111,0.35404 -0.09198,0.44649 -0.160529,0.2919 -0.287452,1.78304 -0.355017,4.17132 -0.06509,2.3028 -0.09643,2.69143 -0.373621,4.65759 -0.284236,2.0146 -0.323703,2.27629 -0.426847,2.81017 -0.05733,0.29645 -0.139657,0.79862 -0.183451,1.11621 -0.07507,0.54837 -0.133667,0.90498 -0.320394,1.9637 -0.04472,0.2541 -0.124327,0.77386 -0.17725,1.15497 -0.165551,1.1915 -0.271812,1.9016 -0.385507,2.57917 -0.06038,0.35996 -0.142492,0.87972 -0.182934,1.15497 -0.200124,1.3617 -0.492138,3.06923 -0.842843,4.92787 -0.131907,0.69877 -0.271097,1.44345 -0.309025,1.65519 -0.03819,0.21175 -0.118791,0.61045 -0.178284,0.88574 -0.05976,0.27529 -0.180187,0.84669 -0.267684,1.2702 -0.0875,0.42352 -0.194405,0.90907 -0.237711,1.07849 -0.04304,0.16942 -0.125603,0.55052 -0.182935,0.84698 -0.230903,1.1911 -0.545691,2.42771 -1.00924,3.96616 -0.772583,2.56383 -2.184955,3.27589 -4.982125,2.51199 -0.410072,-0.11186 -0.847326,-0.21291 -1.655713,-0.38137 -0.27555,-0.0574 -0.59863,-0.14104 -0.717786,-0.18603 -0.35376,-0.13395 -2.256254,-0.1 -2.707328,0.0481 -3.805844,1.24796 -5.397286,5.75384 -3.481958,9.85676 1.362015,2.91687 4.883576,4.60375 7.31945,3.50573 1.641538,-0.73999 2.484266,-1.54351 3.261816,-3.11092 0.672157,-1.35447 0.992064,-2.44604 1.300179,-4.42867 0.286177,-1.84369 0.685504,-2.84218 1.305347,-3.26389 l 0.382922,-0.26045 1.519804,0.0377 c 1.376701,0.0342 1.748127,-2.8e-4 1.521354,-0.14005 -0.149414,-0.0918 -0.09803,-1.23082 0.06201,-1.37614 0.43601,-0.39619 0.641761,0.85319 0.218075,1.32343 -0.312552,0.34672 0.407449,0.46656 2.398303,0.39895 0.312716,-0.0107 0.555941,-1.09995 0.326595,-1.4609 -0.07061,-0.11098 -0.608994,-0.22509 -1.09399,-0.23202 l -0.278536,-0.004 -0.03462,0.61495 c -0.025,0.45011 -0.07173,0.65653 -0.17415,0.76998 -0.326806,0.36289 -0.45783,0.0549 -0.414445,-0.97358 l 0.02532,-0.60255 -0.407727,-0.0227 c -0.268054,-0.0148 -0.422938,-0.0604 -0.451135,-0.13332 -0.02394,-0.0624 -0.143255,-0.11137 -0.270784,-0.11111 -0.931596,0.002 -1.827129,-1.16561 -1.649512,-2.15129 0.02668,-0.14848 0.09572,-0.54695 0.152962,-0.88573 0.199181,-1.17781 0.332531,-1.92844 0.451652,-2.54093 0.06598,-0.33881 0.273006,-1.41288 0.460437,-2.38694 0.187166,-0.97405 0.396227,-2.04812 0.464055,-2.38693 0.06783,-0.33881 0.171317,-0.85903 0.229443,-1.15549 0.05839,-0.29645 0.161868,-0.81616 0.22996,-1.15496 0.06809,-0.33881 0.153169,-0.83193 0.189136,-1.09606 0.03597,-0.26439 0.09692,-0.54181 0.135392,-0.6165 0.03874,-0.0744 0.09314,-0.34332 0.120923,-0.59738 0.02779,-0.25406 0.09915,-0.68693 0.158647,-0.96222 0.05949,-0.27529 0.146477,-0.7257 0.193269,-1.00097 0.110578,-0.64978 0.198989,-1.13672 0.335897,-1.84846 0.06099,-0.31763 0.183395,-0.97595 0.271818,-1.46296 0.245912,-1.35492 0.824828,-4.36643 0.947229,-4.92787 0.11218,-0.51432 0.373721,-1.88931 0.45837,-2.41019 0.06531,-0.40362 0.564682,-0.89728 0.852661,-0.84284 0.307567,0.0584 0.454817,0.57393 1.003557,3.51761 0.230361,1.23699 0.352575,1.85423 0.39119,1.97559 0.02237,0.0709 0.08815,0.39957 0.146245,0.73071 0.207225,1.18067 0.289811,1.60857 0.397908,2.06396 0.06032,0.25387 0.132981,0.65192 0.160714,0.8847 0.028,0.23277 0.08189,0.48435 0.120406,0.55862 0.03852,0.0745 0.09964,0.35122 0.135909,0.61547 0.03626,0.26397 0.123842,0.72287 0.194303,1.01905 0.236471,0.99276 0.287752,1.22764 0.395842,1.80765 0.05913,0.31737 0.268192,1.33869 0.464054,2.26962 0.196127,0.93094 0.406632,1.96608 0.468705,2.30012 0.06207,0.33404 0.130357,0.66327 0.151929,0.73122 0.02157,0.0677 0.09457,0.41752 0.162781,0.77722 0.290505,1.53372 0.340143,1.7754 0.374654,1.83089 0.01991,0.0322 0.07717,0.35163 0.127124,0.71004 0.04969,0.35841 0.118479,0.68637 0.152962,0.72864 0.03448,0.0425 0.101189,0.30215 0.147795,0.57722 0.08759,0.51867 0.164835,0.84358 0.401009,1.6924 0.539518,1.93723 0.420643,3.24364 -0.326595,3.60237 -0.507763,0.24367 -2.875111,0.63426 -3.874699,0.63924 -0.232302,0.001 -0.281962,0.81287 -0.08165,1.33687 0.09337,0.24428 0.119071,0.24504 1.405082,0.0537 1.118317,-0.16662 4.210695,-0.12422 4.631242,0.0636 0.922926,0.4119 1.253983,1.00635 1.607654,2.89078 0.805258,4.29095 2.062034,6.7421 3.956348,7.71529 0.204476,0.10515 0.423708,0.23102 0.487309,0.27957 0.0636,0.0483 0.271395,0.12338 0.461987,0.16743 0.190591,0.0441 0.485317,0.11611 0.65474,0.15968 0.48074,0.12389 1.247885,0.0841 1.962671,-0.1018 2.264417,-0.58835 4.170396,-2.47537 4.802808,-4.75475 0.292305,-1.05338 0.323855,-2.94201 0.06356,-3.8101 -0.288001,-0.96011 -0.462089,-1.47069 -0.536921,-1.57717 -0.04485,-0.0634 -0.185145,-0.31693 -0.312126,-0.56379 -0.68352,-1.32971 -2.260396,-2.59617 -3.506246,-2.81584 -0.232919,-0.0411 -0.579912,-0.10745 -0.770496,-0.1478 -0.687159,-0.1449 -1.464392,-0.0816 -2.885612,0.23513 -0.318412,0.0708 -0.545486,0.13707 -1.845882,0.53795 -2.856745,0.88114 -3.844567,0.11972 -4.625557,-3.56671 -0.05371,-0.25389 -0.208477,-0.96361 -0.344682,-1.57716 -0.285233,-1.28714 -0.473638,-2.18601 -0.742074,-3.5388 -0.104809,-0.52896 -0.243615,-1.20449 -0.307991,-1.50069 -0.06438,-0.2962 -0.169201,-0.78022 -0.233578,-1.07642 -0.06438,-0.2962 -0.138525,-0.69477 -0.164847,-0.88521 -0.02632,-0.19045 -0.09415,-0.50209 -0.150896,-0.69247 -0.05675,-0.19038 -0.127303,-0.5191 -0.156579,-0.7307 -0.02928,-0.21161 -0.08198,-0.43881 -0.117306,-0.50488 -0.03533,-0.0658 -0.09973,-0.34277 -0.142627,-0.61547 -0.04263,-0.2727 -0.11205,-0.6514 -0.154512,-0.84181 -0.0422,-0.19041 -0.150095,-0.76136 -0.239779,-1.26917 -0.08968,-0.50782 -0.215339,-1.21798 -0.279053,-1.57768 -0.31669,-1.78582 -0.686359,-4.08616 -0.852661,-5.30872 -0.06071,-0.44438 -0.1452,-1.03337 -0.188102,-1.30845 -0.140488,-0.89427 -0.341036,-2.37894 -0.556555,-4.11654 -0.04709,-0.38091 -0.121626,-0.93521 -0.165365,-1.23145 -0.04347,-0.29625 -0.128184,-1.00579 -0.188102,-1.57717 -0.05992,-0.57138 -0.145447,-1.24677 -0.190686,-1.50068 -0.05461,-0.30866 -0.09,-4.10034 -0.10542,-11.440131 -0.02249,-10.764813 -0.02546,-10.979098 -0.170532,-11.016898 -0.02442,-0.0063 -0.04618,-0.0083 -0.06563,-0.0026 z M 64.059656,144.82734 c 1.368724,0.0455 2.743478,0.62932 3.787882,1.7787 3.609984,3.97268 -0.592576,11.81257 -5.359363,9.99784 -1.473303,-0.56105 -2.703108,-1.63961 -3.273185,-2.87166 -0.0978,-0.21147 -0.221771,-0.47099 -0.275435,-0.57671 -0.737218,-1.45184 -0.466147,-4.17871 0.586011,-5.88956 1.024221,-1.66543 2.774301,-2.49709 4.53409,-2.43861 z m 9.980269,0.0574 c 0.08419,-0.018 0.170312,0.0296 0.244946,0.16846 0.101726,0.18897 0.03346,1.04434 -0.0956,1.20045 -0.146742,0.17757 -0.438289,0.11767 -0.49351,-0.10129 -0.143449,-0.56644 0.0916,-1.21356 0.344165,-1.26762 z m 19.707324,0.061 c 2.105606,0.085 4.276351,1.33391 5.181596,3.53054 1.377975,3.3444 -0.702162,7.71366 -4.035929,8.47752 -0.300161,0.0686 -1.544464,0.0515 -1.885673,-0.0264 -1.064658,-0.24307 -2.297828,-1.26358 -3.068547,-2.53834 -0.220888,-0.3652 -0.401463,-0.68866 -0.401526,-0.71882 -6.1e-5,-0.0299 -0.04873,-0.1634 -0.108003,-0.29663 -0.915737,-2.05577 -0.84998,-4.86528 0.149861,-6.41304 0.93244,-1.44331 2.530528,-2.08098 4.168221,-2.01487 z"
     style="baseline-shift:baseline;display:inline;overflow:visible;vector-effect:none;fill:#111111;fill-rule:evenodd;enable-background:accumulate;stop-color:#000000;stop-opacity:1"
     id="path5" /><path
     d="m 93.193278,84.692505 c -0.93256,-0.01433 -2.909657,0.990241 -3.399792,1.727543 -0.200148,0.301352 -0.0076,0.757619 1.161169,2.75022 0.813048,1.385838 1.134547,1.956922 3.42408,6.071464 1.226238,2.203997 2.51121,4.848488 4.897376,10.078968 5.205509,11.41169 10.276799,21.93189 10.829309,22.4653 0.57602,0.55606 0.93843,1.01529 1.53634,1.94613 1.01587,1.58101 1.51369,2.6921 3.10317,6.92309 1.34025,3.56726 2.80329,6.81531 3.79564,8.42585 0.90252,1.46482 0.94768,1.4986 1.24333,0.93431 0.6525,-1.2453 0.89059,-2.83659 0.62994,-4.21215 -0.12958,-0.68417 -3.33847,-7.20221 -4.41162,-8.96173 -1.7238,-2.82539 -2.1369,-3.78381 -2.49545,-5.78982 -0.12031,-0.67369 -0.26973,-1.32834 -0.33177,-1.4547 -0.0622,-0.12658 -0.18746,-0.49634 -0.27905,-0.82217 -0.53534,-1.90743 -5.2772,-11.61221 -8.3752,-17.14107 -0.41447,-0.73972 -1.38306,-2.56008 -2.15232,-4.04523 -0.76926,-1.48515 -1.84104,-3.5059 -2.381768,-4.490166 -0.995615,-1.812315 -1.617611,-3.181549 -3.31246,-7.291545 -0.25071,-0.607895 -0.729671,-1.74223 -1.065051,-2.520776 -0.335142,-0.778663 -0.788832,-1.897138 -1.008207,-2.485636 -0.704555,-1.890078 -0.844603,-2.099305 -1.407666,-2.107882 z"
     style="baseline-shift:baseline;display:inline;overflow:visible;vector-effect:none;fill:#111111;fill-rule:evenodd;enable-background:accumulate;stop-color:#000000;stop-opacity:1"
     id="path3" /><path
     d="m 79.12592,0.02325439 c -0.505154,-0.146745 -1.510607,0.40562575 -3.600297,1.48724771 v -5.167e-4 c -3.42768,1.77403 -3.159962,2.1756294 0.750858,1.1260294 1.13506,-0.3048 2.207134,-0.5559722 2.382284,-0.5586222 0.17516,-0.002 0.218561,0.9664369 0.09715,2.1533569 -0.22833,2.22885 -0.399838,10.4539905 -0.835608,40.0275305 -0.28734,19.49821 -0.138919,18.945254 -2.887679,10.725444 -4.692385,-14.03218 -3.905798,-31.085538 2.040186,-44.244328 1.24989,-2.76622 1.189631,-3.0578572 -0.399459,-1.9264972 -1.11998,0.79746 -1.612491,1.4582292 -0.678511,0.9105387 0.25797,-0.15134 -1.473214,1.7385835 -3.846794,4.1997435 -13.7967,14.30549 -22.285544,29.111682 -25.115263,43.806112 -0.921808,4.78843 -1.009481,6.810771 -0.28267,6.531901 0.273579,-0.10478 1.599092,-0.308486 2.945557,-0.452686 l 2.448429,-0.262516 0.240812,2.008146 c 0.132556,1.10437 0.242578,2.472595 0.24443,3.040125 l 0.0031,1.031978 h -4.114994 c -3.786716,0 -4.14834,-0.06241 -4.533573,-0.782381 -0.671777,-1.25518 -2.651439,-1.844849 -6.193421,-1.844849 h -3.231844 l 0.257865,-1.219564 c 3.18505,-15.07887 19.753614,-39.01059 36.112008,-52.16064 4.129091,-3.3192 5.616239,-4.7291677 2.814299,-2.667537 C 56.254618,23.81796 40.062153,45.320887 34.00981,63.714457 l -1.080037,3.283521 -2.345593,5.16e-4 c -2.2516,5.3e-4 -2.34611,0.03835 -2.34611,0.938961 v 0.937927 h 4.11396 4.113961 l 0.58291,1.970423 c 1.24592,4.21111 2.551852,7.048507 4.00389,8.698177 l 1.510502,1.716174 37.591504,-0.0021 c 41.919003,-0.003 37.551363,0.275984 41.138053,-2.624646 2.96095,-2.39422 11.32032,-14.636316 9.99423,-14.636316 -0.1061,0 -2.77422,0.418723 -5.92884,0.930693 -10.63811,1.72667 -25.09263,3.186414 -40.919466,4.132564 l -4.034379,0.240812 v -0.895552 c 0,-0.87074 0.129385,-0.908893 4.597135,-1.353923 14.59627,-1.45389 41.83811,-4.704457 42.16487,-5.031217 0.096,-0.096 -1.0554,-0.899591 -2.5585,-1.785421 C 107.50179,50.155273 94.227864,35.853994 85.253194,17.835604 81.225704,9.7494036 79.899743,6.1273159 79.724333,2.7300659 79.635958,1.0156939 79.631073,0.16999939 79.12592,0.02325439 Z m 0.620634,6.36601971 1.047481,6.1923869 c 0.57599,3.40572 1.316754,8.784639 1.645894,11.952759 1.52955,14.72009 0.850138,31.879985 -1.599902,40.400635 -0.30162,1.04933 -0.494516,-8.396763 -0.947746,-46.348593 z M 68.803035,34.806661 c 0.12022,0.07908 -0.481165,0.585261 -1.774051,1.537891 -6.861175,5.05486 -12.609372,12.068685 -17.093531,20.858675 -2.140743,4.19655 -2.240736,3.180769 -0.276469,-2.809131 2.632339,-8.02666 8.723672,-14.843942 16.587618,-18.564242 1.594379,-0.75433 2.436213,-1.102271 2.556433,-1.023193 z m 22.064287,3.085083 c 0.10418,-0.05328 0.809278,1.277281 2.169893,3.963066 1.41156,2.78659 3.727486,6.839742 5.146456,9.007202 2.799819,4.2762 6.988019,9.42006 9.178769,11.27373 l 1.37718,1.164787 -1.25419,-0.683679 C 101.67068,59.44556 95.64642,51.35598 92.30341,42.22998 91.260025,39.38187 90.763142,37.945025 90.867322,37.891744 Z M 77.777165,62.120756 v 3.527433 3.527434 l -4.597136,0.257348 c -2.528365,0.14155 -5.434091,0.201095 -6.45697,0.131775 l -1.859835,-0.12609 -0.999939,-3.45612 -1.000455,-3.455603 2.672705,-0.128675 c 1.469495,-0.0706 4.825092,-0.162078 7.456909,-0.203088 z M 61.450513,62.68713 c 1.286433,0.09629 1.237857,0.734798 1.565279,2.62723 0.817563,4.72466 1.233231,4.312398 -4.343921,4.312398 h -4.844666 l -0.540018,-2.908867 c -0.66622,-3.58775 -0.9192,-3.351419 4.036446,-3.772379 2.102644,-0.178594 3.35502,-0.316157 4.12688,-0.258382 z m 62.399807,5.496822 c 0.62452,-0.03314 0.8895,0.01587 0.75654,0.148828 -0.40958,0.40957 -10.821,2.409788 -16.47806,3.165698 -15.368319,2.05344 -35.170022,2.791115 -50.876481,1.894975 -14.224,-0.81148 -13.825463,-1.034309 1.948202,-1.089339 22.867412,-0.0799 46.797399,-1.543694 61.735769,-3.776514 1.30545,-0.19513 2.28951,-0.310509 2.91403,-0.343648 z"
     style="baseline-shift:baseline;display:inline;overflow:visible;vector-effect:none;fill-rule:evenodd;enable-background:accumulate;stop-color:#000000;stop-opacity:1"
     id="path2" /></svg>
